<svg width="1440" height="684" viewBox="0 0 1440 684" fill="none" xmlns="http://www.w3.org/2000/svg">
<path d="M-934.9 311V0.499969H-844L-764.8 169.7L-685.6 0.499969H-594.7V311H-673V143.6L-733.3 272.75H-796.3L-856.6 143.6V311H-934.9Z" fill="white" fill-opacity="0.07"/>
<path d="M-527.151 231.8V0.499969H-448.851V235.4C-448.851 238.7 -447.201 240.35 -443.901 240.35H-360.201C-356.901 240.35 -355.251 238.7 -355.251 235.4V0.499969H-276.951V231.8C-276.951 284.6 -303.351 311 -356.151 311H-447.951C-500.751 311 -527.151 284.6 -527.151 231.8Z" fill="white" fill-opacity="0.07"/>
<path d="M-222.863 284V240.35H-82.9129C-79.6129 240.35 -77.9629 238.7 -77.9629 235.4V204.8C-77.9629 200.6 -79.7629 198.2 -83.3629 197.6L-166.613 180.5C-204.113 173.3 -222.863 148.25 -222.863 105.35V79.7C-222.863 26.9 -196.463 0.499969 -143.663 0.499969H-43.7629L-8.6629 27.5V71.15H-139.613C-142.913 71.15 -144.563 72.8 -144.563 76.1V104.9C-144.563 108.8 -142.763 111.2 -139.163 112.1L-55.9129 128.3C-18.4129 136.1 0.337097 161.3 0.337097 203.9V231.8C0.337097 284.6 -26.0629 311 -78.8629 311H-187.763L-222.863 284Z" fill="white" fill-opacity="0.07"/>
<path d="M56.9457 311V0.499969H135.246V311H56.9457Z" fill="white" fill-opacity="0.07"/>
<path d="M200.981 231.8V79.7C200.981 26.9 227.381 0.499969 280.181 0.499969H396.731L431.831 27.5V71.15H284.231C280.931 71.15 279.281 72.8 279.281 76.1V235.4C279.281 238.7 280.931 240.35 284.231 240.35H431.831V284L396.731 311H280.181C227.381 311 200.981 284.6 200.981 231.8Z" fill="white" fill-opacity="0.07"/>
<path d="M597.473 311V0.499969H750.473C803.273 0.499969 829.673 26.9 829.673 79.7V131.9C829.673 168.5 817.073 192.5 791.873 203.9L838.673 295.25L829.673 311H762.173L710.873 210.65H675.773V311H597.473ZM675.773 140H746.423C749.723 140 751.373 138.35 751.373 135.05V76.1C751.373 72.8 749.723 71.15 746.423 71.15H675.773V140Z" fill="white" fill-opacity="0.07"/>
<path d="M891.028 311V0.499969H1108.38V71.15H969.328V117.5H1094.88V188.15H969.328V240.35H1108.38V311H891.028Z" fill="white" fill-opacity="0.07"/>
<path d="M1166.13 311V0.499969H1244.43V240.35H1369.98V311H1166.13Z" fill="white" fill-opacity="0.07"/>
<path d="M1388.28 296.6L1476.03 0.499969H1593.03L1680.78 296.6L1671.33 311H1605.63L1590.33 255.65H1478.73L1463.43 311H1397.73L1388.28 296.6ZM1499.43 185H1569.63L1537.23 71.15H1531.83L1499.43 185Z" fill="white" fill-opacity="0.07"/>
<path d="M1700.4 295.7L1794.9 151.25L1706.25 15.8L1713.45 0.499969H1782.3L1837.65 88.25L1893 0.499969H1961.85L1969.05 15.8L1880.4 151.25L1974.9 295.7L1967.25 311H1898.85L1837.65 214.7L1776.45 311H1708.05L1700.4 295.7Z" fill="white" fill-opacity="0.07"/>
<path d="M-620.9 684V373.5H-530L-450.8 542.7L-371.6 373.5H-280.7V684H-359V516.6L-419.3 645.75H-482.3L-542.6 516.6V684H-620.9Z" fill="white" fill-opacity="0.07"/>
<path d="M-213.151 604.8V373.5H-134.851V608.4C-134.851 611.7 -133.201 613.35 -129.901 613.35H-46.2008C-42.9008 613.35 -41.2508 611.7 -41.2508 608.4V373.5H37.0492V604.8C37.0492 657.6 10.6492 684 -42.1508 684H-133.951C-186.751 684 -213.151 657.6 -213.151 604.8Z" fill="white" fill-opacity="0.07"/>
<path d="M90.2371 604.8V452.7C90.2371 399.9 116.637 373.5 169.437 373.5H229.737C282.537 373.5 308.937 399.9 308.937 452.7V604.8C308.937 657.6 282.537 684 229.737 684H169.437C116.637 684 90.2371 657.6 90.2371 604.8ZM168.537 608.4C168.537 611.7 170.187 613.35 173.487 613.35H225.687C228.987 613.35 230.637 611.7 230.637 608.4V449.1C230.637 445.8 228.987 444.15 225.687 444.15H173.487C170.187 444.15 168.537 445.8 168.537 449.1V608.4Z" fill="white" fill-opacity="0.07"/>
<path d="M362.993 684V613.35H427.793V444.15H371.993V400.5L407.093 373.5H506.093V613.35H563.693V684H362.993Z" fill="white" fill-opacity="0.07"/>
<path d="M611.45 657V613.35H751.4C754.7 613.35 756.35 611.7 756.35 608.4V577.8C756.35 573.6 754.55 571.2 750.95 570.6L667.7 553.5C630.2 546.3 611.45 521.25 611.45 478.35V452.7C611.45 399.9 637.85 373.5 690.65 373.5H790.55L825.65 400.5V444.15H694.7C691.4 444.15 689.75 445.8 689.75 449.1V477.9C689.75 481.8 691.55 484.2 695.15 485.1L778.4 501.3C815.9 509.1 834.65 534.3 834.65 576.9V604.8C834.65 657.6 808.25 684 755.45 684H646.55L611.45 657Z" fill="white" fill-opacity="0.07"/>
<path d="M891.258 684V373.5H969.558V684H891.258Z" fill="white" fill-opacity="0.07"/>
<path d="M1035.29 604.8V452.7C1035.29 399.9 1061.69 373.5 1114.49 373.5H1231.04L1266.14 400.5V444.15H1118.54C1115.24 444.15 1113.59 445.8 1113.59 449.1V608.4C1113.59 611.7 1115.24 613.35 1118.54 613.35H1266.14V657L1231.04 684H1114.49C1061.69 684 1035.29 657.6 1035.29 604.8Z" fill="white" fill-opacity="0.07"/>
<path d="M1431.79 684V373.5H1584.79C1637.59 373.5 1663.99 399.9 1663.99 452.7V504.9C1663.99 541.5 1651.39 565.5 1626.19 576.9L1672.99 668.25L1663.99 684H1596.49L1545.19 583.65H1510.09V684H1431.79ZM1510.09 513H1580.74C1584.04 513 1585.69 511.35 1585.69 508.05V449.1C1585.69 445.8 1584.04 444.15 1580.74 444.15H1510.09V513Z" fill="white" fill-opacity="0.07"/>
<path d="M1725.34 684V373.5H1942.69V444.15H1803.64V490.5H1929.19V561.15H1803.64V613.35H1942.69V684H1725.34Z" fill="white" fill-opacity="0.07"/>
<path d="M2000.44 684V373.5H2078.74V613.35H2204.29V684H2000.44Z" fill="white" fill-opacity="0.07"/>
<path d="M2222.6 669.6L2310.35 373.5H2427.35L2515.1 669.6L2505.65 684H2439.95L2424.65 628.65H2313.05L2297.75 684H2232.05L2222.6 669.6ZM2333.75 558H2403.95L2371.55 444.15H2366.15L2333.75 558Z" fill="white" fill-opacity="0.07"/>
<path d="M2534.71 668.7L2629.21 524.25L2540.56 388.8L2547.76 373.5H2616.61L2671.96 461.25L2727.31 373.5H2796.16L2803.36 388.8L2714.71 524.25L2809.21 668.7L2801.56 684H2733.16L2671.96 587.7L2610.76 684H2542.36L2534.71 668.7Z" fill="white" fill-opacity="0.07"/>
</svg>
